<svg aria-hidden="true" style="position: absolute; width: 0; height: 0; overflow: hidden;" version="1.1" xmlns="http://www.w3.org/2000/svg" xmlns:xlink="http://www.w3.org/1999/xlink">
<defs>
<symbol id="cross-icon" viewBox="0 0 32 32">
<path d="M9.080 0.292c0.187-0.187 0.441-0.292 0.706-0.292h12.428c0.265 0 0.519 0.105 0.706 0.292l8.788 8.788c0.187 0.187 0.292 0.441 0.292 0.706v12.428c0 0.265-0.105 0.519-0.292 0.706l-8.788 8.788c-0.187 0.187-0.441 0.292-0.706 0.292h-12.428c-0.265 0-0.519-0.105-0.706-0.292l-8.788-8.788c-0.187-0.187-0.292-0.441-0.292-0.706v-12.428c0-0.265 0.105-0.519 0.292-0.706l8.788-8.788zM10.2 2l-8.2 8.2v11.6l8.2 8.2h11.6l8.2-8.2v-11.6l-8.2-8.2h-11.6z"></path>
<path d="M9.292 9.292c0.093-0.093 0.203-0.167 0.325-0.217s0.252-0.076 0.383-0.076c0.132 0 0.262 0.026 0.383 0.076s0.232 0.124 0.325 0.217l5.292 5.294 5.292-5.294c0.093-0.093 0.203-0.167 0.325-0.217s0.252-0.076 0.383-0.076c0.131 0 0.262 0.026 0.383 0.076s0.232 0.124 0.325 0.217c0.093 0.093 0.167 0.203 0.217 0.325s0.076 0.252 0.076 0.383-0.026 0.262-0.076 0.383c-0.050 0.121-0.124 0.232-0.217 0.325l-5.294 5.292 5.294 5.292c0.093 0.093 0.167 0.203 0.217 0.325s0.076 0.252 0.076 0.383-0.026 0.262-0.076 0.383c-0.050 0.121-0.124 0.232-0.217 0.325s-0.203 0.167-0.325 0.217c-0.121 0.050-0.252 0.076-0.383 0.076s-0.262-0.026-0.383-0.076c-0.121-0.050-0.232-0.124-0.325-0.217l-5.292-5.294-5.292 5.294c-0.093 0.093-0.203 0.167-0.325 0.217s-0.252 0.076-0.383 0.076-0.262-0.026-0.383-0.076c-0.121-0.050-0.232-0.124-0.325-0.217s-0.167-0.203-0.217-0.325c-0.050-0.121-0.076-0.252-0.076-0.383s0.026-0.262 0.076-0.383c0.050-0.121 0.124-0.232 0.217-0.325l5.294-5.292-5.294-5.292c-0.093-0.093-0.167-0.203-0.217-0.325s-0.076-0.252-0.076-0.383c0-0.132 0.026-0.262 0.076-0.383s0.124-0.232 0.217-0.325z"></path>
</symbol>
<symbol id="close-button-icon" viewBox="0 0 32 32">
<path d="M0.389 2.277c-0.124-0.124-0.222-0.271-0.289-0.433s-0.102-0.336-0.102-0.511c0-0.175 0.035-0.349 0.102-0.511s0.165-0.309 0.289-0.433c0.124-0.124 0.271-0.222 0.433-0.289s0.336-0.102 0.511-0.102c0.175 0 0.349 0.035 0.511 0.102s0.309 0.165 0.433 0.289l13.723 13.725 13.723-13.725c0.124-0.124 0.271-0.222 0.433-0.289s0.336-0.102 0.511-0.102 0.349 0.035 0.511 0.102c0.162 0.067 0.309 0.165 0.433 0.289s0.222 0.271 0.289 0.433c0.067 0.162 0.102 0.336 0.102 0.511s-0.034 0.349-0.102 0.511c-0.067 0.162-0.165 0.309-0.289 0.433l-13.725 13.723 13.725 13.723c0.124 0.124 0.222 0.271 0.289 0.433s0.102 0.336 0.102 0.511c0 0.175-0.034 0.349-0.102 0.511s-0.165 0.309-0.289 0.433-0.271 0.222-0.433 0.289c-0.162 0.067-0.336 0.102-0.511 0.102s-0.349-0.035-0.511-0.102c-0.162-0.067-0.309-0.165-0.433-0.289l-13.723-13.725-13.723 13.725c-0.124 0.124-0.271 0.222-0.433 0.289s-0.336 0.102-0.511 0.102-0.349-0.035-0.511-0.102c-0.162-0.067-0.309-0.165-0.433-0.289s-0.222-0.271-0.289-0.433c-0.067-0.162-0.102-0.335-0.102-0.511s0.035-0.349 0.102-0.511c0.067-0.162 0.165-0.309 0.289-0.433l13.725-13.723-13.725-13.723z"></path>
</symbol>
<symbol id="icon-Frame-6" viewBox="0 0 16 32">
<path d="M7.247 4.86l-4.796 5.481c-0.566 0.647-0.106 1.659 0.753 1.659h9.592c0.192 0 0.38-0.055 0.542-0.159s0.29-0.252 0.369-0.428c0.079-0.175 0.107-0.369 0.079-0.559s-0.11-0.368-0.237-0.513l-4.796-5.48c-0.094-0.107-0.21-0.194-0.339-0.252s-0.271-0.090-0.414-0.090c-0.143 0-0.284 0.031-0.413 0.090s-0.246 0.144-0.34 0.251z"></path>
<path d="M7.247 27.14l-4.796-5.482c-0.566-0.645-0.106-1.658 0.753-1.658h9.592c0.192-0 0.38 0.055 0.542 0.159s0.29 0.253 0.369 0.428c0.079 0.175 0.107 0.369 0.079 0.559s-0.11 0.368-0.237 0.513l-4.796 5.48c-0.094 0.107-0.21 0.194-0.339 0.253s-0.271 0.090-0.414 0.090c-0.143 0-0.284-0.030-0.413-0.090s-0.246-0.145-0.34-0.253v0.001z"></path>
</symbol>
</defs>
</svg>

